<svg width="136" height="104" viewBox="0 0 136 104" fill="none" xmlns="http://www.w3.org/2000/svg">
<path d="M116.769 104H5.44416C2.43749 104 0 101.563 0 98.5558V13.1402C0 10.1336 2.43749 7.69605 5.44416 7.69605H116.769C119.776 7.69605 122.213 10.1336 122.213 13.1402V98.5558C122.213 101.563 119.776 104 116.769 104Z" fill="#4364B8"/>
<path d="M119.058 14.4748V97.2182C119.058 99.5871 117.139 101.506 114.77 101.506H7.44324C5.0745 101.506 3.15527 99.5871 3.15527 97.2182V14.4748C3.15527 12.1091 5.0745 10.1899 7.44324 10.1899H114.77C117.139 10.1899 119.058 12.1091 119.058 14.4748Z" fill="#5EA1DD"/>
<path d="M4.91009 100.679C3.76413 99.9092 3.01001 98.6009 3.01001 97.1162V28.9867C3.05548 29.0967 3.104 29.2121 3.15535 29.3326V97.2182C3.15535 98.6394 3.84593 99.8985 4.91009 100.679Z" fill="#405BB2"/>
<path d="M114.625 101.404H7.29791C6.4139 101.404 5.59255 101.137 4.91002 100.679C3.84586 99.8985 3.15527 98.6394 3.15527 97.2182V29.3326C4.23031 31.8565 6.56729 36.6353 10.3111 42.0675V91.4298H58.9896V70.6897C63.9631 71.142 68.8582 71.3322 73.5758 71.3322C96.4036 71.3328 115.114 66.8819 118.913 66.1491V97.1161C118.913 99.4851 116.994 101.404 114.625 101.404ZM63.7323 83.6539V88.4434H112.411V83.6539H63.7323ZM63.7323 74.3965V79.1862H112.411V74.3965H63.7323Z" fill="#528BD0"/>
<path d="M10.311 91.4298H58.9895V17.4382H10.311V91.4298Z" fill="#FEFEFE"/>
<path d="M34.5127 44.6984C29.1358 44.6984 24.7769 40.5575 24.7769 35.4495C24.7769 30.3415 29.1358 26.2004 34.5127 26.2004C39.8896 26.2004 44.2485 30.3415 44.2485 35.4495C44.2485 40.5575 39.8896 44.6984 34.5127 44.6984Z" fill="#D6E0F2"/>
<path d="M18.2126 56.5236H50.8121V52.9014H18.2126V56.5236Z" fill="#D6E0F2"/>
<path d="M18.2126 64.3311H50.8121V60.7089H18.2126V64.3311Z" fill="#D6E0F2"/>
<path d="M23.2776 80.5424H45.7479V76.9204H23.2776V80.5424Z" fill="#D6E0F2"/>
<path d="M63.7324 88.4434H112.411V83.6539H63.7324V88.4434Z" fill="#4979C6"/>
<path d="M63.7324 79.1862H112.411V74.3965H63.7324V79.1862Z" fill="#4979C6"/>
<path d="M135.672 52.9388H122.213V13.1402C122.213 10.1336 119.776 7.69605 116.769 7.69605H72.5684V-5.57372e-06H135.672V52.9388Z" fill="#D9E3F5"/>
<path d="M122.213 52.9388H119.058V14.4748C119.058 12.1091 117.139 10.1899 114.77 10.1899H72.5684V7.69605H116.769C119.776 7.69605 122.213 10.1336 122.213 13.1402V52.9388Z" fill="#405BB2"/>
<path d="M119.058 52.9388H72.5684V10.1899H114.77C117.139 10.1899 119.058 12.1091 119.058 14.4748V52.9388Z" fill="#528BD0"/>
</svg>
